<svg xmlns="http://www.w3.org/2000/svg" viewBox="0 0 32 32" fill="none">
  <defs>
    <linearGradient id="g" x1="0" y1="0" x2="32" y2="32" gradientUnits="userSpaceOnUse">
      <stop offset="0%" stop-color="#a855f7"/>
      <stop offset="100%" stop-color="#06b6d4"/>
    </linearGradient>
    <filter id="blur">
      <feGaussianBlur in="SourceGraphic" stdDeviation="0.5"/>
    </filter>
  </defs>
  <rect width="32" height="32" rx="8" fill="#0a0a0a"/>
  <g opacity="0.9">
    <path d="M8 20c2-6 6-10 12-8 2-4 6-5 8-3-1 3-4 5-7 4 0 2-2 4-5 5-3 1-5 0-6-2-1 2-3 3-5 3-1-1-1-1 0-1" fill="url(#g)" filter="url(#blur)" opacity="0.6"/>
    <path d="M6 18c3-5 7-8 11-7 1-3 4-4 6-3 0 2-2 4-5 3 1 2 0 4-2 5s-4 0-5-2c-1 2-3 3-5 3 0 0 0-1 0-1" fill="url(#g)" opacity="0.8"/>
  </g>
  <text x="16" y="22" text-anchor="middle" font-family="Georgia,serif" font-size="14" font-weight="bold" fill="white" opacity="0.95">b</text>
</svg>
